<?xml version="1.0" encoding="UTF-8" standalone="no"?>
<!DOCTYPE svg PUBLIC "-//W3C//DTD SVG 1.1//EN"
 "http://www.w3.org/Graphics/SVG/1.1/DTD/svg11.dtd">
<!-- Generated by graphviz version 2.40.1 (20161225.0304)
 -->
<!-- Title: G Pages: 1 -->
<svg width="736pt" height="416pt"
 viewBox="0.00 0.00 736.01 416.00" xmlns="http://www.w3.org/2000/svg" xmlns:xlink="http://www.w3.org/1999/xlink">
<g id="graph0" class="graph" transform="scale(1 1) rotate(0) translate(4 412)">
<title>G</title>
<polygon fill="#ffffff" stroke="transparent" points="-4,4 -4,-412 732.014,-412 732.014,4 -4,4"/>
<!-- A0 -->
<g id="node1" class="node">
<title>A0</title>
<polygon fill="#550000" stroke="#000000" points="79.6703,-394 .1097,-394 .1097,-358 85.6703,-358 85.6703,-388 79.6703,-394"/>
<polyline fill="none" stroke="#000000" points="79.6703,-394 79.6703,-388 "/>
<polyline fill="none" stroke="#000000" points="85.6703,-388 79.6703,-388 "/>
<text text-anchor="middle" x="42.89" y="-373" font-family="Helvetica,sans-Serif" font-size="10.00" fill="#ffffff">arrow means</text>
</g>
<!-- A1 -->
<g id="node2" class="node">
<title>A1</title>
<polygon fill="#005500" stroke="#000000" points="190.2387,-394 103.5413,-394 103.5413,-358 196.2387,-358 196.2387,-388 190.2387,-394"/>
<polyline fill="none" stroke="#000000" points="190.2387,-394 190.2387,-388 "/>
<polyline fill="none" stroke="#000000" points="196.2387,-388 190.2387,-388 "/>
<text text-anchor="middle" x="149.89" y="-373" font-family="Helvetica,sans-Serif" font-size="10.00" fill="#ffffff">&quot;state change&quot;</text>
</g>
<!-- A0&#45;&gt;A1 -->
<g id="edge1" class="edge">
<title>A0&#45;&gt;A1</title>
<path fill="none" stroke="#000000" stroke-dasharray="5,2" d="M85.9408,-376C88.3998,-376 90.8588,-376 93.3177,-376"/>
<polygon fill="#000000" stroke="#000000" points="103.4269,-376 93.4269,-380.5001 98.4269,-376 93.4269,-376.0001 93.4269,-376.0001 93.4269,-376.0001 98.4269,-376 93.4269,-371.5001 103.4269,-376 103.4269,-376"/>
</g>
<!-- A2 -->
<g id="node3" class="node">
<title>A2</title>
<polygon fill="#ffffff" stroke="transparent" points="214.39,-344 214.39,-408 299.39,-408 299.39,-344 214.39,-344"/>
<polygon fill="none" stroke="#000000" points="214.89,-376 214.89,-408 299.89,-408 299.89,-376 214.89,-376"/>
<text text-anchor="start" x="229.335" y="-389" font-family="Helvetica,sans-Serif" font-size="10.00" fill="#000000">Main Activity</text>
<polygon fill="none" stroke="#000000" points="214.89,-344 214.89,-376 299.89,-376 299.89,-344 214.89,-344"/>
<text text-anchor="start" x="224.6065" y="-357" font-family="Helvetica,sans-Serif" font-size="10.00" fill="#000000">Navigation Bar</text>
</g>
<!-- A3 -->
<g id="node4" class="node">
<title>A3</title>
<polygon fill="#005500" stroke="#000000" points="186.3529,-294 63.4271,-294 63.4271,-258 186.3529,-258 186.3529,-294"/>
<text text-anchor="middle" x="124.89" y="-273" font-family="Helvetica,sans-Serif" font-size="10.00" fill="#ffffff">Restaurant Fragment</text>
</g>
<!-- A2&#45;&gt;A3 -->
<g id="edge2" class="edge">
<title>A2&#45;&gt;A3</title>
<path fill="none" stroke="#000000" d="M214.3978,-343.8089C195.7445,-329.6777 174.2095,-313.3633 156.9376,-300.2785"/>
<polygon fill="#000000" stroke="#000000" points="148.8325,-294.1382 159.5208,-296.5899 152.8179,-297.1575 156.8034,-300.1768 156.8034,-300.1768 156.8034,-300.1768 152.8179,-297.1575 154.086,-303.7638 148.8325,-294.1382 148.8325,-294.1382"/>
</g>
<!-- A4 -->
<g id="node5" class="node">
<title>A4</title>
<polygon fill="#005500" stroke="#000000" points="310.2376,-294 203.5424,-294 203.5424,-258 310.2376,-258 310.2376,-294"/>
<text text-anchor="middle" x="256.89" y="-279" font-family="Helvetica,sans-Serif" font-size="10.00" fill="#ffffff">Recommendation</text>
<text text-anchor="middle" x="256.89" y="-267" font-family="Helvetica,sans-Serif" font-size="10.00" fill="#ffffff">Fragment</text>
</g>
<!-- A2&#45;&gt;A4 -->
<g id="edge3" class="edge">
<title>A2&#45;&gt;A4</title>
<path fill="none" stroke="#000000" d="M256.89,-343.8089C256.89,-331.0908 256.89,-316.6043 256.89,-304.2954"/>
<polygon fill="#000000" stroke="#000000" points="256.89,-294.1382 261.3901,-304.1382 256.89,-299.1382 256.8901,-304.1382 256.8901,-304.1382 256.8901,-304.1382 256.89,-299.1382 252.3901,-304.1383 256.89,-294.1382 256.89,-294.1382"/>
</g>
<!-- A5 -->
<g id="node6" class="node">
<title>A5</title>
<polygon fill="#005500" stroke="#000000" points="509.5764,-294 400.2036,-294 400.2036,-258 509.5764,-258 509.5764,-294"/>
<text text-anchor="middle" x="454.89" y="-273" font-family="Helvetica,sans-Serif" font-size="10.00" fill="#ffffff">Account Fragment</text>
</g>
<!-- A2&#45;&gt;A5 -->
<g id="edge4" class="edge">
<title>A2&#45;&gt;A5</title>
<path fill="none" stroke="#000000" d="M299.6364,-352.5425C305.0885,-349.6311 310.6077,-346.723 315.89,-344 346.2216,-328.3639 380.6748,-311.5031 407.6918,-298.4824"/>
<polygon fill="#000000" stroke="#000000" points="416.919,-294.0453 409.857,-302.4346 412.4129,-296.2122 407.9068,-298.3791 407.9068,-298.3791 407.9068,-298.3791 412.4129,-296.2122 405.9566,-294.3236 416.919,-294.0453 416.919,-294.0453"/>
</g>
<!-- A8 -->
<g id="node9" class="node">
<title>A8</title>
<polygon fill="#000055" stroke="#000000" points="191.4569,-208 88.3231,-208 88.3231,-172 191.4569,-172 191.4569,-208"/>
<text text-anchor="middle" x="139.89" y="-187" font-family="Helvetica,sans-Serif" font-size="10.00" fill="#ffffff">Food List Activity</text>
</g>
<!-- A3&#45;&gt;A8 -->
<g id="edge6" class="edge">
<title>A3&#45;&gt;A8</title>
<path fill="none" stroke="#000000" d="M128.0711,-257.7616C129.9803,-246.8157 132.4558,-232.6226 134.6477,-220.056"/>
<polygon fill="none" stroke="#000000" points="134.6515,-220.0336 131.742,-213.4355 136.7135,-208.2121 139.623,-214.8102 134.6515,-220.0336"/>
</g>
<!-- A4&#45;&gt;A8 -->
<g id="edge7" class="edge">
<title>A4&#45;&gt;A8</title>
<path fill="none" stroke="#000000" d="M232.363,-257.9716C215.5146,-245.5873 192.9128,-228.974 174.2717,-215.272"/>
<polygon fill="none" stroke="#000000" points="174.0537,-215.1118 166.8502,-214.7813 164.3847,-208.0047 171.5883,-208.3353 174.0537,-215.1118"/>
</g>
<!-- A9 -->
<g id="node10" class="node">
<title>A9</title>
<polygon fill="#000055" stroke="#000000" points="293.7811,-208 211.9989,-208 211.9989,-172 293.7811,-172 293.7811,-208"/>
<text text-anchor="middle" x="252.89" y="-187" font-family="Helvetica,sans-Serif" font-size="10.00" fill="#ffffff">Map Activity</text>
</g>
<!-- A4&#45;&gt;A9 -->
<g id="edge8" class="edge">
<title>A4&#45;&gt;A9</title>
<path fill="none" stroke="#000000" d="M256.0417,-257.7616C255.5379,-246.9298 254.8862,-232.9179 254.3062,-220.4492"/>
<polygon fill="none" stroke="#000000" points="254.2947,-220.1991 250.0202,-214.3915 253.7371,-208.2121 258.0116,-214.0197 254.2947,-220.1991"/>
</g>
<!-- A10 -->
<g id="node11" class="node">
<title>A10</title>
<polygon fill="#005500" stroke="#000000" points="397.6404,-208 312.1396,-208 312.1396,-172 397.6404,-172 397.6404,-208"/>
<text text-anchor="middle" x="354.89" y="-187" font-family="Helvetica,sans-Serif" font-size="10.00" fill="#ffffff">Acount Page</text>
</g>
<!-- A5&#45;&gt;A10 -->
<g id="edge9" class="edge">
<title>A5&#45;&gt;A10</title>
<path fill="none" stroke="#000000" d="M433.6826,-257.7616C419.2313,-245.3335 399.9121,-228.719 384.0207,-215.0524"/>
<polygon fill="#000000" stroke="#000000" points="376.0669,-208.2121 386.5829,-211.3207 379.8578,-211.4723 383.6487,-214.7325 383.6487,-214.7325 383.6487,-214.7325 379.8578,-211.4723 380.7145,-218.1444 376.0669,-208.2121 376.0669,-208.2121"/>
</g>
<!-- A11 -->
<g id="node12" class="node">
<title>A11</title>
<polygon fill="#005500" stroke="#000000" points="493.9711,-208 415.8089,-208 415.8089,-172 493.9711,-172 493.9711,-208"/>
<text text-anchor="middle" x="454.89" y="-187" font-family="Helvetica,sans-Serif" font-size="10.00" fill="#ffffff">Login Page</text>
</g>
<!-- A5&#45;&gt;A11 -->
<g id="edge10" class="edge">
<title>A5&#45;&gt;A11</title>
<path fill="none" stroke="#000000" d="M454.89,-257.7616C454.89,-246.3597 454.89,-231.4342 454.89,-218.494"/>
<polygon fill="#000000" stroke="#000000" points="454.89,-208.2121 459.3901,-218.2121 454.89,-213.2121 454.8901,-218.2121 454.8901,-218.2121 454.8901,-218.2121 454.89,-213.2121 450.3901,-218.2121 454.89,-208.2121 454.89,-208.2121"/>
</g>
<!-- A12 -->
<g id="node13" class="node">
<title>A12</title>
<polygon fill="#005500" stroke="#000000" points="619.855,-208 511.925,-208 511.925,-172 619.855,-172 619.855,-208"/>
<text text-anchor="middle" x="565.89" y="-187" font-family="Helvetica,sans-Serif" font-size="10.00" fill="#ffffff">Registration Page</text>
</g>
<!-- A5&#45;&gt;A12 -->
<g id="edge11" class="edge">
<title>A5&#45;&gt;A12</title>
<path fill="none" stroke="#000000" d="M478.1592,-257.9716C494.5876,-245.2433 516.7818,-228.0478 534.7363,-214.1371"/>
<polygon fill="#000000" stroke="#000000" points="542.6514,-208.0047 537.5025,-217.6866 538.6989,-211.067 534.7464,-214.1293 534.7464,-214.1293 534.7464,-214.1293 538.6989,-211.067 531.9903,-210.5721 542.6514,-208.0047 542.6514,-208.0047"/>
</g>
<!-- A13 -->
<g id="node14" class="node">
<title>A13</title>
<polygon fill="#000055" stroke="#000000" points="728.1383,-208 637.6417,-208 637.6417,-172 728.1383,-172 728.1383,-208"/>
<text text-anchor="middle" x="682.89" y="-187" font-family="Helvetica,sans-Serif" font-size="10.00" fill="#ffffff">Settings Page</text>
</g>
<!-- A5&#45;&gt;A13 -->
<g id="edge12" class="edge">
<title>A5&#45;&gt;A13</title>
<path fill="none" stroke="#000000" d="M502.6863,-257.9716C538.661,-244.4022 588.0963,-225.7555 626.0903,-211.4245"/>
<polygon fill="none" stroke="#000000" points="626.2588,-211.361 630.461,-205.5008 637.4866,-207.1258 633.2844,-212.986 626.2588,-211.361"/>
</g>
<!-- A6 -->
<g id="node7" class="node">
<title>A6</title>
<polygon fill="#550000" stroke="#000000" points="414.6283,-394 325.1517,-394 325.1517,-358 420.6283,-358 420.6283,-388 414.6283,-394"/>
<polyline fill="none" stroke="#000000" points="414.6283,-394 414.6283,-388 "/>
<polyline fill="none" stroke="#000000" points="420.6283,-388 414.6283,-388 "/>
<text text-anchor="middle" x="372.89" y="-373" font-family="Helvetica,sans-Serif" font-size="10.00" fill="#ffffff">box line means</text>
</g>
<!-- A7 -->
<g id="node8" class="node">
<title>A7</title>
<polygon fill="#000055" stroke="#000000" points="515.0011,-394 438.7789,-394 438.7789,-358 521.0011,-358 521.0011,-388 515.0011,-394"/>
<polyline fill="none" stroke="#000000" points="515.0011,-394 515.0011,-388 "/>
<polyline fill="none" stroke="#000000" points="521.0011,-388 515.0011,-388 "/>
<text text-anchor="middle" x="479.89" y="-379" font-family="Helvetica,sans-Serif" font-size="10.00" fill="#ffffff">&quot;new Activty</text>
<text text-anchor="middle" x="479.89" y="-367" font-family="Helvetica,sans-Serif" font-size="10.00" fill="#ffffff">popup&quot;</text>
</g>
<!-- A6&#45;&gt;A7 -->
<g id="edge5" class="edge">
<title>A6&#45;&gt;A7</title>
<path fill="none" stroke="#000000" stroke-dasharray="5,2" d="M420.5384,-376C422.5163,-376 424.4942,-376 426.4721,-376"/>
<polygon fill="none" stroke="#000000" points="426.6221,-376.0001 432.6221,-372 438.6221,-376 432.6221,-380 426.6221,-376.0001"/>
</g>
<!-- A14 -->
<g id="node15" class="node">
<title>A14</title>
<polygon fill="#000055" stroke="#000000" points="145.5011,-122 66.2789,-122 66.2789,-86 145.5011,-86 145.5011,-122"/>
<text text-anchor="middle" x="105.89" y="-107" font-family="Helvetica,sans-Serif" font-size="10.00" fill="#ffffff">Review List</text>
<text text-anchor="middle" x="105.89" y="-95" font-family="Helvetica,sans-Serif" font-size="10.00" fill="#ffffff">Activity</text>
</g>
<!-- A8&#45;&gt;A14 -->
<g id="edge13" class="edge">
<title>A8&#45;&gt;A14</title>
<path fill="none" stroke="#000000" d="M132.6795,-171.7616C128.307,-160.7017 122.6237,-146.3265 117.6176,-133.6638"/>
<polygon fill="none" stroke="#000000" points="117.5021,-133.3716 111.5763,-129.2625 113.0901,-122.2121 119.016,-126.3212 117.5021,-133.3716"/>
</g>
<!-- A15 -->
<g id="node16" class="node">
<title>A15</title>
<polygon fill="#000055" stroke="#000000" points="197.6752,-36 82.1048,-36 82.1048,0 197.6752,0 197.6752,-36"/>
<text text-anchor="middle" x="139.89" y="-15" font-family="Helvetica,sans-Serif" font-size="10.00" fill="#ffffff">Add Review Activity</text>
</g>
<!-- A8&#45;&gt;A15 -->
<g id="edge14" class="edge">
<title>A8&#45;&gt;A15</title>
<path fill="none" stroke="#000000" d="M144.9829,-171.9948C148.5561,-158.3899 153.017,-139.186 154.89,-122 156.6235,-106.0942 156.6235,-101.9058 154.89,-86 153.5145,-73.379 150.7433,-59.6698 147.953,-47.889"/>
<polygon fill="none" stroke="#000000" points="147.8927,-47.6471 142.5571,-42.7961 144.9829,-36.0052 150.3184,-40.8563 147.8927,-47.6471"/>
</g>
<!-- A14&#45;&gt;A15 -->
<g id="edge15" class="edge">
<title>A14&#45;&gt;A15</title>
<path fill="none" stroke="#000000" d="M113.1005,-85.7616C117.473,-74.7017 123.1563,-60.3265 128.1624,-47.6638"/>
<polygon fill="none" stroke="#000000" points="128.2779,-47.3716 126.764,-40.3212 132.6899,-36.2121 134.2037,-43.2625 128.2779,-47.3716"/>
</g>
<!-- A16 -->
<g id="node17" class="node">
<title>A16</title>
<polygon fill="#ffffff" stroke="#000000" points="606.4555,-394 543.3245,-394 543.3245,-358 606.4555,-358 606.4555,-394"/>
<text text-anchor="middle" x="574.89" y="-373" font-family="Helvetica,sans-Serif" font-size="10.00" fill="#000000">Any List</text>
</g>
<!-- A17 -->
<g id="node18" class="node">
<title>A17</title>
<polygon fill="#000055" stroke="#000000" points="617.0487,-294 532.7313,-294 532.7313,-258 617.0487,-258 617.0487,-294"/>
<text text-anchor="middle" x="574.89" y="-273" font-family="Helvetica,sans-Serif" font-size="10.00" fill="#ffffff">Filter Activity</text>
</g>
<!-- A16&#45;&gt;A17 -->
<g id="edge16" class="edge">
<title>A16&#45;&gt;A17</title>
<path fill="none" stroke="#000000" d="M569.5259,-357.6585C567.9923,-342.7164 567.7315,-321.3665 568.7434,-304.2446"/>
<polygon fill="#000000" stroke="#000000" points="569.5379,-294.2253 573.2332,-304.5497 569.1426,-299.2096 568.7473,-304.194 568.7473,-304.194 568.7473,-304.194 569.1426,-299.2096 564.2614,-303.8382 569.5379,-294.2253 569.5379,-294.2253"/>
</g>
<!-- A17&#45;&gt;A16 -->
<g id="edge17" class="edge">
<title>A17&#45;&gt;A16</title>
<path fill="none" stroke="#000000" d="M580.2421,-294.2253C581.7823,-309.134 582.0498,-330.4782 581.0445,-347.6219"/>
<polygon fill="#000000" stroke="#000000" points="580.2541,-357.6585 576.5532,-347.336 580.6467,-352.6739 581.0393,-347.6893 581.0393,-347.6893 581.0393,-347.6893 580.6467,-352.6739 585.5254,-348.0427 580.2541,-357.6585 580.2541,-357.6585"/>
</g>
</g>
</svg>
