<?xml version="1.0" encoding="UTF-8" standalone="no"?>
<!DOCTYPE svg PUBLIC "-//W3C//DTD SVG 1.1//EN"
 "http://www.w3.org/Graphics/SVG/1.1/DTD/svg11.dtd">
<!-- Generated by graphviz version 2.40.1 (20161225.0304)
 -->
<!-- Title: G Pages: 1 -->
<svg width="807pt" height="526pt"
 viewBox="0.00 0.00 806.65 526.00" xmlns="http://www.w3.org/2000/svg" xmlns:xlink="http://www.w3.org/1999/xlink">
<g id="graph0" class="graph" transform="scale(1 1) rotate(0) translate(4 522)">
<title>G</title>
<polygon fill="#ffffff" stroke="transparent" points="-4,4 -4,-522 802.6497,-522 802.6497,4 -4,4"/>
<!-- A0 -->
<g id="node1" class="node">
<title>A0</title>
<path fill="none" stroke="#000000" d="M444.1304,-518C444.1304,-518 386.467,-518 386.467,-518 380.467,-518 374.467,-512 374.467,-506 374.467,-506 374.467,-494 374.467,-494 374.467,-488 380.467,-482 386.467,-482 386.467,-482 444.1304,-482 444.1304,-482 450.1304,-482 456.1304,-488 456.1304,-494 456.1304,-494 456.1304,-506 456.1304,-506 456.1304,-512 450.1304,-518 444.1304,-518"/>
<text text-anchor="middle" x="415.2987" y="-497" font-family="Helvetica,sans-Serif" font-size="10.00" fill="#000000">MainActivity</text>
</g>
<!-- A1 -->
<g id="node2" class="node">
<title>A1</title>
<path fill="none" stroke="#000000" d="M449.8667,-445C449.8667,-445 380.7307,-445 380.7307,-445 374.7307,-445 368.7307,-439 368.7307,-433 368.7307,-433 368.7307,-421 368.7307,-421 368.7307,-415 374.7307,-409 380.7307,-409 380.7307,-409 449.8667,-409 449.8667,-409 455.8667,-409 461.8667,-415 461.8667,-421 461.8667,-421 461.8667,-433 461.8667,-433 461.8667,-439 455.8667,-445 449.8667,-445"/>
<text text-anchor="middle" x="415.2987" y="-424" font-family="Helvetica,sans-Serif" font-size="10.00" fill="#000000">Navigation Bar</text>
</g>
<!-- A0&#45;&gt;A1 -->
<g id="edge1" class="edge">
<title>A0&#45;&gt;A1</title>
<path fill="none" stroke="#000000" d="M415.2987,-481.9551C415.2987,-473.8828 415.2987,-464.1764 415.2987,-455.1817"/>
<polygon fill="#000000" stroke="#000000" points="415.2987,-445.0904 419.7988,-455.0903 415.2987,-450.0904 415.2988,-455.0904 415.2988,-455.0904 415.2988,-455.0904 415.2987,-450.0904 410.7988,-455.0904 415.2987,-445.0904 415.2987,-445.0904"/>
</g>
<!-- A2 -->
<g id="node3" class="node">
<title>A2</title>
<path fill="none" stroke="#000000" d="M444.1998,-372C444.1998,-372 386.3976,-372 386.3976,-372 380.3976,-372 374.3976,-366 374.3976,-360 374.3976,-360 374.3976,-348 374.3976,-348 374.3976,-342 380.3976,-336 386.3976,-336 386.3976,-336 444.1998,-336 444.1998,-336 450.1998,-336 456.1998,-342 456.1998,-348 456.1998,-348 456.1998,-360 456.1998,-360 456.1998,-366 450.1998,-372 444.1998,-372"/>
<text text-anchor="middle" x="415.2987" y="-351" font-family="Helvetica,sans-Serif" font-size="10.00" fill="#000000">Restaraunts</text>
</g>
<!-- A1&#45;&gt;A2 -->
<g id="edge2" class="edge">
<title>A1&#45;&gt;A2</title>
<path fill="none" stroke="#000000" d="M415.2987,-408.9551C415.2987,-400.8828 415.2987,-391.1764 415.2987,-382.1817"/>
<polygon fill="#000000" stroke="#000000" points="415.2987,-372.0904 419.7988,-382.0903 415.2987,-377.0904 415.2988,-382.0904 415.2988,-382.0904 415.2988,-382.0904 415.2987,-377.0904 410.7988,-382.0904 415.2987,-372.0904 415.2987,-372.0904"/>
</g>
<!-- A3 -->
<g id="node4" class="node">
<title>A3</title>
<path fill="none" stroke="#000000" d="M199.8407,-372C199.8407,-372 100.7567,-372 100.7567,-372 94.7567,-372 88.7567,-366 88.7567,-360 88.7567,-360 88.7567,-348 88.7567,-348 88.7567,-342 94.7567,-336 100.7567,-336 100.7567,-336 199.8407,-336 199.8407,-336 205.8407,-336 211.8407,-342 211.8407,-348 211.8407,-348 211.8407,-360 211.8407,-360 211.8407,-366 205.8407,-372 199.8407,-372"/>
<text text-anchor="middle" x="150.2987" y="-351" font-family="Helvetica,sans-Serif" font-size="10.00" fill="#000000">Account Page / Login</text>
</g>
<!-- A1&#45;&gt;A3 -->
<g id="edge3" class="edge">
<title>A1&#45;&gt;A3</title>
<path fill="none" stroke="#000000" d="M368.532,-414.1171C327.8873,-402.9206 268.3805,-386.5282 221.7679,-373.6877"/>
<polygon fill="#000000" stroke="#000000" points="212.0284,-371.0048 222.8645,-369.3223 216.8489,-372.3327 221.6693,-373.6607 221.6693,-373.6607 221.6693,-373.6607 216.8489,-372.3327 220.4742,-377.9991 212.0284,-371.0048 212.0284,-371.0048"/>
</g>
<!-- A4 -->
<g id="node5" class="node">
<title>A4</title>
<path fill="none" stroke="#000000" d="M672.1462,-372C672.1462,-372 584.4512,-372 584.4512,-372 578.4512,-372 572.4512,-366 572.4512,-360 572.4512,-360 572.4512,-348 572.4512,-348 572.4512,-342 578.4512,-336 584.4512,-336 584.4512,-336 672.1462,-336 672.1462,-336 678.1462,-336 684.1462,-342 684.1462,-348 684.1462,-348 684.1462,-360 684.1462,-360 684.1462,-366 678.1462,-372 672.1462,-372"/>
<text text-anchor="middle" x="628.2987" y="-351" font-family="Helvetica,sans-Serif" font-size="10.00" fill="#000000">Recommendations</text>
</g>
<!-- A1&#45;&gt;A4 -->
<g id="edge4" class="edge">
<title>A1&#45;&gt;A4</title>
<path fill="none" stroke="#000000" d="M462.0425,-410.9798C492.5821,-400.5132 532.8146,-386.7246 566.0524,-375.3333"/>
<polygon fill="#000000" stroke="#000000" points="575.6748,-372.0354 567.6739,-379.5345 570.9448,-373.6565 566.2149,-375.2776 566.2149,-375.2776 566.2149,-375.2776 570.9448,-373.6565 564.7559,-371.0207 575.6748,-372.0354 575.6748,-372.0354"/>
</g>
<!-- A5 -->
<g id="node6" class="node">
<title>A5</title>
<path fill="none" stroke="#000000" d="M530.0919,-204C530.0919,-204 438.5055,-204 438.5055,-204 432.5055,-204 426.5055,-198 426.5055,-192 426.5055,-192 426.5055,-180 426.5055,-180 426.5055,-174 432.5055,-168 438.5055,-168 438.5055,-168 530.0919,-168 530.0919,-168 536.0919,-168 542.0919,-174 542.0919,-180 542.0919,-180 542.0919,-192 542.0919,-192 542.0919,-198 536.0919,-204 530.0919,-204"/>
<text text-anchor="middle" x="484.2987" y="-183" font-family="Helvetica,sans-Serif" font-size="10.00" fill="#000000">Food List w/Ratings</text>
</g>
<!-- A2&#45;&gt;A5 -->
<g id="edge5" class="edge">
<title>A2&#45;&gt;A5</title>
<path fill="none" stroke="#000000" d="M434.969,-335.9049C439.8969,-330.5422 444.7767,-324.3846 448.2987,-318 458.0823,-300.2644 470.8074,-247.5775 478.2128,-214.3783"/>
<polygon fill="#000000" stroke="#000000" points="480.4198,-204.3531 482.6645,-215.0868 479.3448,-209.2362 478.2698,-214.1192 478.2698,-214.1192 478.2698,-214.1192 479.3448,-209.2362 473.875,-213.1517 480.4198,-204.3531 480.4198,-204.3531"/>
<text text-anchor="middle" x="508.0317" y="-267" font-family="Helvetica,sans-Serif" font-size="10.00" fill="#000000">TapOnRestaraunt</text>
</g>
<!-- A6 -->
<g id="node7" class="node">
<title>A6</title>
<path fill="none" stroke="#000000" d="M414.4712,-288C414.4712,-288 324.1262,-288 324.1262,-288 318.1262,-288 312.1262,-282 312.1262,-276 312.1262,-276 312.1262,-264 312.1262,-264 312.1262,-258 318.1262,-252 324.1262,-252 324.1262,-252 414.4712,-252 414.4712,-252 420.4712,-252 426.4712,-258 426.4712,-264 426.4712,-264 426.4712,-276 426.4712,-276 426.4712,-282 420.4712,-288 414.4712,-288"/>
<text text-anchor="middle" x="369.2987" y="-267" font-family="Helvetica,sans-Serif" font-size="10.00" fill="#000000">RestarauntFilterList</text>
</g>
<!-- A2&#45;&gt;A6 -->
<g id="edge6" class="edge">
<title>A2&#45;&gt;A6</title>
<path fill="none" stroke="#000000" d="M390.8574,-335.9309C385.3699,-330.7334 380.1383,-324.6499 376.6227,-318 373.4684,-312.0334 371.5707,-305.104 370.4521,-298.3976"/>
<polygon fill="#000000" stroke="#000000" points="369.2671,-288.213 374.8928,-297.6259 369.845,-293.1795 370.4229,-298.146 370.4229,-298.146 370.4229,-298.146 369.845,-293.1795 365.9531,-298.6661 369.2671,-288.213 369.2671,-288.213"/>
<text text-anchor="middle" x="412.1367" y="-309" font-family="Helvetica,sans-Serif" font-size="10.00" fill="#000000">TapOnFilterIcon</text>
</g>
<!-- A11 -->
<g id="node12" class="node">
<title>A11</title>
<path fill="none" stroke="#000000" d="M117.549,-120C117.549,-120 51.0484,-120 51.0484,-120 45.0484,-120 39.0484,-114 39.0484,-108 39.0484,-108 39.0484,-96 39.0484,-96 39.0484,-90 45.0484,-84 51.0484,-84 51.0484,-84 117.549,-84 117.549,-84 123.549,-84 129.549,-90 129.549,-96 129.549,-96 129.549,-108 129.549,-108 129.549,-114 123.549,-120 117.549,-120"/>
<text text-anchor="middle" x="84.2987" y="-99" font-family="Helvetica,sans-Serif" font-size="10.00" fill="#000000">Account Page</text>
</g>
<!-- A3&#45;&gt;A11 -->
<g id="edge16" class="edge">
<title>A3&#45;&gt;A11</title>
<path fill="none" stroke="#000000" d="M113.7749,-335.9986C78.5641,-316.3726 27.4389,-281.3301 5.1587,-234 -13.2275,-194.9419 23.1143,-152.6087 52.4291,-126.6908"/>
<polygon fill="#000000" stroke="#000000" points="60.0755,-120.1499 55.4017,-130.0699 56.276,-123.4001 52.4765,-126.6503 52.4765,-126.6503 52.4765,-126.6503 56.276,-123.4001 49.5513,-123.2307 60.0755,-120.1499 60.0755,-120.1499"/>
<text text-anchor="middle" x="30.8687" y="-225" font-family="Helvetica,sans-Serif" font-size="10.00" fill="#000000">ISLoggedIn</text>
</g>
<!-- A12 -->
<g id="node13" class="node">
<title>A12</title>
<path fill="none" stroke="#000000" d="M165.2987,-288C165.2987,-288 135.2987,-288 135.2987,-288 129.2987,-288 123.2987,-282 123.2987,-276 123.2987,-276 123.2987,-264 123.2987,-264 123.2987,-258 129.2987,-252 135.2987,-252 135.2987,-252 165.2987,-252 165.2987,-252 171.2987,-252 177.2987,-258 177.2987,-264 177.2987,-264 177.2987,-276 177.2987,-276 177.2987,-282 171.2987,-288 165.2987,-288"/>
<text text-anchor="middle" x="150.2987" y="-267" font-family="Helvetica,sans-Serif" font-size="10.00" fill="#000000">Login</text>
</g>
<!-- A3&#45;&gt;A12 -->
<g id="edge17" class="edge">
<title>A3&#45;&gt;A12</title>
<path fill="none" stroke="#000000" d="M150.2987,-335.7733C150.2987,-324.8758 150.2987,-310.7946 150.2987,-298.4587"/>
<polygon fill="#000000" stroke="#000000" points="150.2987,-288.1912 154.7988,-298.1911 150.2987,-293.1912 150.2988,-298.1912 150.2988,-298.1912 150.2988,-298.1912 150.2987,-293.1912 145.7988,-298.1912 150.2987,-288.1912 150.2987,-288.1912"/>
<text text-anchor="middle" x="183.6472" y="-309" font-family="Helvetica,sans-Serif" font-size="10.00" fill="#000000">ISNotLoggedIn</text>
</g>
<!-- A7 -->
<g id="node8" class="node">
<title>A7</title>
<path fill="none" stroke="#000000" d="M658.6988,-120C658.6988,-120 595.8986,-120 595.8986,-120 589.8986,-120 583.8986,-114 583.8986,-108 583.8986,-108 583.8986,-96 583.8986,-96 583.8986,-90 589.8986,-84 595.8986,-84 595.8986,-84 658.6988,-84 658.6988,-84 664.6988,-84 670.6988,-90 670.6988,-96 670.6988,-96 670.6988,-108 670.6988,-108 670.6988,-114 664.6988,-120 658.6988,-120"/>
<text text-anchor="middle" x="627.2987" y="-99" font-family="Helvetica,sans-Serif" font-size="10.00" fill="#000000">Review Page</text>
</g>
<!-- A4&#45;&gt;A7 -->
<g id="edge12" class="edge">
<title>A4&#45;&gt;A7</title>
<path fill="none" stroke="#000000" d="M663.7861,-335.9984C703.0494,-313.3103 758.8719,-271.2668 743.2987,-222 729.5482,-178.4994 717.3391,-169.4597 684.2987,-138 679.7373,-133.6568 674.575,-129.5489 669.2658,-125.7692"/>
<polygon fill="#000000" stroke="#000000" points="660.8674,-120.1131 671.6756,-121.9667 665.0146,-122.9061 669.1619,-125.6992 669.1619,-125.6992 669.1619,-125.6992 665.0146,-122.9061 666.6481,-129.4316 660.8674,-120.1131 660.8674,-120.1131"/>
<text text-anchor="middle" x="771.9742" y="-225" font-family="Helvetica,sans-Serif" font-size="10.00" fill="#000000">TapOnFood</text>
</g>
<!-- A8 -->
<g id="node9" class="node">
<title>A8</title>
<path fill="none" stroke="#000000" d="M553.3568,-120C553.3568,-120 489.2406,-120 489.2406,-120 483.2406,-120 477.2406,-114 477.2406,-108 477.2406,-108 477.2406,-96 477.2406,-96 477.2406,-90 483.2406,-84 489.2406,-84 489.2406,-84 553.3568,-84 553.3568,-84 559.3568,-84 565.3568,-90 565.3568,-96 565.3568,-96 565.3568,-108 565.3568,-108 565.3568,-114 559.3568,-120 553.3568,-120"/>
<text text-anchor="middle" x="521.2987" y="-99" font-family="Helvetica,sans-Serif" font-size="10.00" fill="#000000">FoodFilterList</text>
</g>
<!-- A4&#45;&gt;A8 -->
<g id="edge13" class="edge">
<title>A4&#45;&gt;A8</title>
<path fill="none" stroke="#000000" d="M646.0185,-335.9794C650.2038,-330.6169 654.0888,-324.4408 656.2987,-318 658.5603,-311.4085 682.1219,-175.8064 651.2987,-138 629.3642,-111.0962 608.6862,-129.4979 575.2987,-120 575.1977,-119.9713 575.0966,-119.9425 574.9955,-119.9136"/>
<polygon fill="#000000" stroke="#000000" points="565.4033,-117.0578 576.2717,-115.5984 570.1954,-118.4845 574.9876,-119.9113 574.9876,-119.9113 574.9876,-119.9113 570.1954,-118.4845 573.7035,-124.2242 565.4033,-117.0578 565.4033,-117.0578"/>
<text text-anchor="middle" x="702.1367" y="-225" font-family="Helvetica,sans-Serif" font-size="10.00" fill="#000000">TapOnFilterIcon</text>
</g>
<!-- A10 -->
<g id="node11" class="node">
<title>A10</title>
<path fill="none" stroke="#000000" d="M601.2987,-288C601.2987,-288 571.2987,-288 571.2987,-288 565.2987,-288 559.2987,-282 559.2987,-276 559.2987,-276 559.2987,-264 559.2987,-264 559.2987,-258 565.2987,-252 571.2987,-252 571.2987,-252 601.2987,-252 601.2987,-252 607.2987,-252 613.2987,-258 613.2987,-264 613.2987,-264 613.2987,-276 613.2987,-276 613.2987,-282 607.2987,-288 601.2987,-288"/>
<text text-anchor="middle" x="586.2987" y="-267" font-family="Helvetica,sans-Serif" font-size="10.00" fill="#000000">Map</text>
</g>
<!-- A4&#45;&gt;A10 -->
<g id="edge14" class="edge">
<title>A4&#45;&gt;A10</title>
<path fill="none" stroke="#000000" d="M600.9881,-335.6914C595.5206,-330.6442 590.5057,-324.6892 587.3897,-318 584.5717,-311.9505 583.4097,-304.9901 583.1434,-298.2802"/>
<polygon fill="#000000" stroke="#000000" points="583.353,-288.1092 587.6459,-298.1999 583.2499,-293.1082 583.1468,-298.1071 583.1468,-298.1071 583.1468,-298.1071 583.2499,-293.1082 578.6478,-298.0144 583.353,-288.1092 583.353,-288.1092"/>
<text text-anchor="middle" x="621.7532" y="-309" font-family="Helvetica,sans-Serif" font-size="10.00" fill="#000000">TapOnMapIcon</text>
</g>
<!-- A5&#45;&gt;A7 -->
<g id="edge7" class="edge">
<title>A5&#45;&gt;A7</title>
<path fill="none" stroke="#000000" d="M542.1201,-168.9804C555.2086,-163.8801 568.6651,-157.5779 580.2987,-150 589.5338,-143.9844 598.3552,-135.8693 605.81,-128.0244"/>
<polygon fill="#000000" stroke="#000000" points="612.7739,-120.3574 609.3814,-130.7854 609.4121,-124.0586 606.0504,-127.7598 606.0504,-127.7598 606.0504,-127.7598 609.4121,-124.0586 602.7193,-124.7342 612.7739,-120.3574 612.7739,-120.3574"/>
<text text-anchor="middle" x="620.9742" y="-141" font-family="Helvetica,sans-Serif" font-size="10.00" fill="#000000">TapOnFood</text>
</g>
<!-- A5&#45;&gt;A8 -->
<g id="edge8" class="edge">
<title>A5&#45;&gt;A8</title>
<path fill="none" stroke="#000000" d="M428.318,-167.8888C414.0233,-160.1928 404.8688,-150.157 413.6227,-138 415.4371,-135.4802 441.5592,-126.7171 467.6169,-118.4683"/>
<polygon fill="#000000" stroke="#000000" points="477.1691,-115.465 468.9792,-122.7572 472.3993,-116.9647 467.6295,-118.4644 467.6295,-118.4644 467.6295,-118.4644 472.3993,-116.9647 466.2797,-114.1716 477.1691,-115.465 477.1691,-115.465"/>
<text text-anchor="middle" x="449.1367" y="-141" font-family="Helvetica,sans-Serif" font-size="10.00" fill="#000000">TapOnFilterIcon</text>
</g>
<!-- A5&#45;&gt;A8 -->
<g id="edge10" class="edge">
<title>A5&#45;&gt;A8</title>
<path fill="none" stroke="#000000" d="M492.3271,-167.7733C497.2242,-156.6557 503.5808,-142.2244 509.0917,-129.7132"/>
<polygon fill="#000000" stroke="#000000" points="513.2859,-120.1912 513.373,-131.1567 511.2704,-124.767 509.2548,-129.3427 509.2548,-129.3427 509.2548,-129.3427 511.2704,-124.767 505.1366,-127.5287 513.2859,-120.1912 513.2859,-120.1912"/>
<text text-anchor="middle" x="540.1367" y="-141" font-family="Helvetica,sans-Serif" font-size="10.00" fill="#000000">TapOnFilterIcon</text>
</g>
<!-- A9 -->
<g id="node10" class="node">
<title>A9</title>
<path fill="none" stroke="#000000" d="M432.53,-36C432.53,-36 376.0674,-36 376.0674,-36 370.0674,-36 364.0674,-30 364.0674,-24 364.0674,-24 364.0674,-12 364.0674,-12 364.0674,-6 370.0674,0 376.0674,0 376.0674,0 432.53,0 432.53,0 438.53,0 444.53,-6 444.53,-12 444.53,-12 444.53,-24 444.53,-24 444.53,-30 438.53,-36 432.53,-36"/>
<text text-anchor="middle" x="404.2987" y="-15" font-family="Helvetica,sans-Serif" font-size="10.00" fill="#000000">add Review</text>
</g>
<!-- A5&#45;&gt;A9 -->
<g id="edge9" class="edge">
<title>A5&#45;&gt;A9</title>
<path fill="none" stroke="#000000" d="M432.0345,-167.9702C422.4419,-163.1218 413.0313,-157.1778 405.2987,-150 394.1513,-139.6525 392.6102,-134.7331 388.8327,-120 382.5158,-95.3623 387.9661,-66.6719 394.0725,-46.0063"/>
<polygon fill="#000000" stroke="#000000" points="397.1702,-36.2775 398.4241,-47.1714 395.6532,-41.0418 394.1362,-45.8061 394.1362,-45.8061 394.1362,-45.8061 395.6532,-41.0418 389.8483,-44.4409 397.1702,-36.2775 397.1702,-36.2775"/>
<text text-anchor="middle" x="428.0317" y="-99" font-family="Helvetica,sans-Serif" font-size="10.00" fill="#000000">AddReviewButton</text>
</g>
<!-- A7&#45;&gt;A9 -->
<g id="edge11" class="edge">
<title>A7&#45;&gt;A9</title>
<path fill="none" stroke="#000000" d="M583.7727,-85.6045C546.6145,-71.6077 493.1694,-51.476 454.2701,-36.8233"/>
<polygon fill="#000000" stroke="#000000" points="444.7126,-33.2232 455.657,-32.5371 449.3917,-34.9857 454.0707,-36.7483 454.0707,-36.7483 454.0707,-36.7483 449.3917,-34.9857 452.4844,-40.9594 444.7126,-33.2232 444.7126,-33.2232"/>
<text text-anchor="middle" x="551.6442" y="-57" font-family="Helvetica,sans-Serif" font-size="10.00" fill="#000000">AddButton</text>
</g>
<!-- A10&#45;&gt;A5 -->
<g id="edge15" class="edge">
<title>A10&#45;&gt;A5</title>
<path fill="none" stroke="#000000" d="M564.4171,-251.9799C549.8615,-239.9929 530.5471,-224.0869 514.5292,-210.8957"/>
<polygon fill="#000000" stroke="#000000" points="506.496,-204.2801 517.076,-207.1636 510.3557,-207.4587 514.2153,-210.6373 514.2153,-210.6373 514.2153,-210.6373 510.3557,-207.4587 511.3546,-214.111 506.496,-204.2801 506.496,-204.2801"/>
<text text-anchor="middle" x="581.0317" y="-225" font-family="Helvetica,sans-Serif" font-size="10.00" fill="#000000">TapOnRestaraunt</text>
</g>
<!-- A13 -->
<g id="node14" class="node">
<title>A13</title>
<path fill="none" stroke="#000000" d="M306.547,-36C306.547,-36 240.0504,-36 240.0504,-36 234.0504,-36 228.0504,-30 228.0504,-24 228.0504,-24 228.0504,-12 228.0504,-12 228.0504,-6 234.0504,0 240.0504,0 240.0504,0 306.547,0 306.547,0 312.547,0 318.547,-6 318.547,-12 318.547,-12 318.547,-24 318.547,-24 318.547,-30 312.547,-36 306.547,-36"/>
<text text-anchor="middle" x="273.2987" y="-15" font-family="Helvetica,sans-Serif" font-size="10.00" fill="#000000">Settings Page</text>
</g>
<!-- A11&#45;&gt;A13 -->
<g id="edge18" class="edge">
<title>A11&#45;&gt;A13</title>
<path fill="none" stroke="#000000" d="M124.8439,-83.9799C153.645,-71.1794 192.5014,-53.9099 223.237,-40.2496"/>
<polygon fill="#000000" stroke="#000000" points="232.4949,-36.135 225.1844,-44.3086 227.9258,-38.1658 223.3567,-40.1965 223.3567,-40.1965 223.3567,-40.1965 227.9258,-38.1658 221.5291,-36.0843 232.4949,-36.135 232.4949,-36.135"/>
<text text-anchor="middle" x="222.8122" y="-57" font-family="Helvetica,sans-Serif" font-size="10.00" fill="#000000">SettingsButton</text>
</g>
<!-- A12&#45;&gt;A11 -->
<g id="edge20" class="edge">
<title>A12&#45;&gt;A11</title>
<path fill="none" stroke="#000000" d="M123.1082,-263.4248C105.6219,-258.0119 83.4247,-248.7752 68.2987,-234 57.7707,-223.7161 57.471,-218.3671 54.2797,-204 50.8103,-188.3807 50.8906,-183.637 54.2797,-168 57.1752,-154.6405 63.0158,-140.739 68.7819,-129.1592"/>
<polygon fill="#000000" stroke="#000000" points="73.5417,-120.0411 72.9033,-130.9884 71.2279,-124.4735 68.9141,-128.9059 68.9141,-128.9059 68.9141,-128.9059 71.2279,-124.4735 64.9249,-126.8235 73.5417,-120.0411 73.5417,-120.0411"/>
<text text-anchor="middle" x="79.3082" y="-183" font-family="Helvetica,sans-Serif" font-size="10.00" fill="#000000">loginButton</text>
</g>
<!-- A12&#45;&gt;A13 -->
<g id="edge19" class="edge">
<title>A12&#45;&gt;A13</title>
<path fill="none" stroke="#000000" d="M177.3013,-265.5036C208.586,-259.6862 257.2644,-248.5478 268.2987,-234 310.1651,-178.8029 294.2243,-90.8221 282.0957,-46.092"/>
<polygon fill="#000000" stroke="#000000" points="279.2839,-36.2072 286.3483,-44.5945 280.652,-41.0165 282.02,-45.8257 282.02,-45.8257 282.02,-45.8257 280.652,-41.0165 277.6917,-47.0569 279.2839,-36.2072 279.2839,-36.2072"/>
<text text-anchor="middle" x="327.8122" y="-141" font-family="Helvetica,sans-Serif" font-size="10.00" fill="#000000">SettingsButton</text>
</g>
<!-- A14 -->
<g id="node15" class="node">
<title>A14</title>
<path fill="none" stroke="#000000" d="M209.2637,-204C209.2637,-204 125.3337,-204 125.3337,-204 119.3337,-204 113.3337,-198 113.3337,-192 113.3337,-192 113.3337,-180 113.3337,-180 113.3337,-174 119.3337,-168 125.3337,-168 125.3337,-168 209.2637,-168 209.2637,-168 215.2637,-168 221.2637,-174 221.2637,-180 221.2637,-180 221.2637,-192 221.2637,-192 221.2637,-198 215.2637,-204 209.2637,-204"/>
<text text-anchor="middle" x="167.2987" y="-183" font-family="Helvetica,sans-Serif" font-size="10.00" fill="#000000">Registration Page</text>
</g>
<!-- A12&#45;&gt;A14 -->
<g id="edge21" class="edge">
<title>A12&#45;&gt;A14</title>
<path fill="none" stroke="#000000" d="M177.4111,-257.1332C186.3766,-251.3981 195.3246,-243.7106 200.2987,-234 203.9943,-226.7854 202.1403,-219.3829 197.8498,-212.6175"/>
<polygon fill="#000000" stroke="#000000" points="191.3463,-204.4508 201.096,-209.4702 194.4611,-208.3621 197.5758,-212.2734 197.5758,-212.2734 197.5758,-212.2734 194.4611,-208.3621 194.0556,-215.0767 191.3463,-204.4508 191.3463,-204.4508"/>
<text text-anchor="middle" x="233.4172" y="-225" font-family="Helvetica,sans-Serif" font-size="10.00" fill="#000000">registerButton</text>
</g>
<!-- A14&#45;&gt;A11 -->
<g id="edge23" class="edge">
<title>A14&#45;&gt;A11</title>
<path fill="none" stroke="#000000" d="M149.2889,-167.7733C137.6511,-155.9952 122.3385,-140.4981 109.5,-127.5049"/>
<polygon fill="#000000" stroke="#000000" points="102.2733,-120.1912 112.5029,-124.1416 105.7876,-123.7478 109.3019,-127.3045 109.3019,-127.3045 109.3019,-127.3045 105.7876,-123.7478 106.101,-130.4674 102.2733,-120.1912 102.2733,-120.1912"/>
<text text-anchor="middle" x="180.4797" y="-141" font-family="Helvetica,sans-Serif" font-size="10.00" fill="#000000">registerAccountButton</text>
</g>
<!-- A14&#45;&gt;A12 -->
<g id="edge22" class="edge">
<title>A14&#45;&gt;A12</title>
<path fill="none" stroke="#000000" d="M113.4932,-201.2907C96.1834,-207.3706 80.1615,-214.6599 75.1487,-222 62.431,-240.6221 88.5167,-253.5928 113.365,-261.3143"/>
<polygon fill="#000000" stroke="#000000" points="123.1013,-264.1126 112.2473,-265.6751 118.2959,-262.7314 113.4904,-261.3502 113.4904,-261.3502 113.4904,-261.3502 118.2959,-262.7314 114.7335,-257.0253 123.1013,-264.1126 123.1013,-264.1126"/>
<text text-anchor="middle" x="135.8737" y="-225" font-family="Helvetica,sans-Serif" font-size="10.00" fill="#000000">alreadyHaveAccountButton</text>
</g>
</g>
</svg>
