<?xml version="1.0" encoding="UTF-8" standalone="no"?>
<!DOCTYPE svg PUBLIC "-//W3C//DTD SVG 1.1//EN"
 "http://www.w3.org/Graphics/SVG/1.1/DTD/svg11.dtd">
<!-- Generated by graphviz version 2.40.1 (20161225.0304)
 -->
<!-- Title: G Pages: 1 -->
<svg width="518pt" height="364pt"
 viewBox="0.00 0.00 518.00 364.00" xmlns="http://www.w3.org/2000/svg" xmlns:xlink="http://www.w3.org/1999/xlink">
<g id="graph0" class="graph" transform="scale(1 1) rotate(0) translate(4 360)">
<title>G</title>
<polygon fill="#ffffff" stroke="transparent" points="-4,4 -4,-360 514,-360 514,4 -4,4"/>
<!-- A0 -->
<g id="node1" class="node">
<title>A0</title>
<polygon fill="none" stroke="#000000" points="0,-312 0,-356 116,-356 116,-312 0,-312"/>
<text text-anchor="start" x="17.7125" y="-337" font-family="Helvetica,sans-Serif" font-size="10.00" fill="#000000">Restaurant Object</text>
<text text-anchor="start" x="45.5015" y="-325" font-family="Helvetica,sans-Serif" font-size="10.00" fill="#000000">Class</text>
<polygon fill="none" stroke="#000000" points="0,-280 0,-312 116,-312 116,-280 0,-280"/>
<text text-anchor="start" x="47.443" y="-293" font-family="Helvetica,sans-Serif" font-size="10.00" fill="#000000">int id</text>
<polygon fill="none" stroke="#000000" points="0,-248 0,-280 116,-280 116,-248 0,-248"/>
<text text-anchor="start" x="31.0505" y="-261" font-family="Helvetica,sans-Serif" font-size="10.00" fill="#000000">String name</text>
<polygon fill="none" stroke="#000000" points="0,-216 0,-248 116,-248 116,-216 0,-216"/>
<text text-anchor="start" x="25.771" y="-229" font-family="Helvetica,sans-Serif" font-size="10.00" fill="#000000">String address</text>
<polygon fill="none" stroke="#000000" points="0,-184 0,-216 116,-216 116,-184 0,-184"/>
<text text-anchor="start" x="19.383" y="-197" font-family="Helvetica,sans-Serif" font-size="10.00" fill="#000000">String description</text>
<polygon fill="none" stroke="#000000" points="0,-152 0,-184 116,-184 116,-152 0,-152"/>
<text text-anchor="start" x="34.105" y="-165" font-family="Helvetica,sans-Serif" font-size="10.00" fill="#000000">String type</text>
<polygon fill="none" stroke="#000000" points="0,-108 0,-152 116,-152 116,-108 0,-108"/>
<text text-anchor="start" x="31.6105" y="-133" font-family="Helvetica,sans-Serif" font-size="10.00" fill="#000000">String Array</text>
<text text-anchor="start" x="9.6575" y="-121" font-family="Helvetica,sans-Serif" font-size="10.00" fill="#000000">subRestaurantNames</text>
<polygon fill="none" stroke="#000000" points="0,-64 0,-108 116,-108 116,-64 0,-64"/>
<text text-anchor="start" x="37.9995" y="-89" font-family="Helvetica,sans-Serif" font-size="10.00" fill="#000000">int Array </text>
<text text-anchor="start" x="16.0415" y="-77" font-family="Helvetica,sans-Serif" font-size="10.00" fill="#000000">associatedFoodIds</text>
<polygon fill="none" stroke="#000000" points="0,-32 0,-64 116,-64 116,-32 0,-32"/>
<text text-anchor="start" x="25.4875" y="-45" font-family="Helvetica,sans-Serif" font-size="10.00" fill="#000000">double latitude</text>
<polygon fill="none" stroke="#000000" points="0,0 0,-32 116,-32 116,0 0,0"/>
<text text-anchor="start" x="21.318" y="-13" font-family="Helvetica,sans-Serif" font-size="10.00" fill="#000000">double longitude</text>
</g>
<!-- A1 -->
<g id="node2" class="node">
<title>A1</title>
<polygon fill="none" stroke="#000000" points="135,-248 135,-280 260,-280 260,-248 135,-248"/>
<text text-anchor="start" x="156.382" y="-261" font-family="Helvetica,sans-Serif" font-size="10.00" fill="#000000">Food Object Class</text>
<polygon fill="none" stroke="#000000" points="135,-216 135,-248 260,-248 260,-216 135,-216"/>
<text text-anchor="start" x="186.943" y="-229" font-family="Helvetica,sans-Serif" font-size="10.00" fill="#000000">int id</text>
<polygon fill="none" stroke="#000000" points="135,-172 135,-216 260,-216 260,-172 135,-172"/>
<text text-anchor="start" x="182.493" y="-197" font-family="Helvetica,sans-Serif" font-size="10.00" fill="#000000">double</text>
<text text-anchor="start" x="144.714" y="-185" font-family="Helvetica,sans-Serif" font-size="10.00" fill="#000000">averageNumberOfStars</text>
<polygon fill="none" stroke="#000000" points="135,-140 135,-172 260,-172 260,-140 135,-140"/>
<text text-anchor="start" x="170.5505" y="-153" font-family="Helvetica,sans-Serif" font-size="10.00" fill="#000000">String name</text>
<polygon fill="none" stroke="#000000" points="135,-108 135,-140 260,-140 260,-108 135,-108"/>
<text text-anchor="start" x="163.8815" y="-121" font-family="Helvetica,sans-Serif" font-size="10.00" fill="#000000">String category</text>
<polygon fill="none" stroke="#000000" points="135,-76 135,-108 260,-108 260,-76 135,-76"/>
<text text-anchor="start" x="174.715" y="-89" font-family="Helvetica,sans-Serif" font-size="10.00" fill="#000000">lDate date</text>
</g>
<!-- A2 -->
<g id="node3" class="node">
<title>A2</title>
<polygon fill="none" stroke="#000000" points="278,-270 278,-302 390,-302 390,-270 278,-270"/>
<text text-anchor="start" x="287.8875" y="-283" font-family="Helvetica,sans-Serif" font-size="10.00" fill="#000000">Review Object Class</text>
<polygon fill="none" stroke="#000000" points="278,-238 278,-270 390,-270 390,-238 278,-238"/>
<text text-anchor="start" x="323.443" y="-251" font-family="Helvetica,sans-Serif" font-size="10.00" fill="#000000">int id</text>
<polygon fill="none" stroke="#000000" points="278,-194 278,-238 390,-238 390,-194 278,-194"/>
<text text-anchor="start" x="328.7215" y="-219" font-family="Helvetica,sans-Serif" font-size="10.00" fill="#000000">int</text>
<text text-anchor="start" x="291.768" y="-207" font-family="Helvetica,sans-Serif" font-size="10.00" fill="#000000">associatedProfileId</text>
<polygon fill="none" stroke="#000000" points="278,-162 278,-194 390,-194 390,-162 278,-162"/>
<text text-anchor="start" x="305.1015" y="-175" font-family="Helvetica,sans-Serif" font-size="10.00" fill="#000000">double rating</text>
<polygon fill="none" stroke="#000000" points="278,-130 278,-162 390,-162 390,-130 278,-130"/>
<text text-anchor="start" x="293.7175" y="-143" font-family="Helvetica,sans-Serif" font-size="10.00" fill="#000000">String reviewBody</text>
<polygon fill="none" stroke="#000000" points="278,-98 278,-130 390,-130 390,-98 278,-98"/>
<text text-anchor="start" x="311.215" y="-111" font-family="Helvetica,sans-Serif" font-size="10.00" fill="#000000">lDate date</text>
<polygon fill="none" stroke="#000000" points="278,-54 278,-98 390,-98 390,-54 278,-54"/>
<text text-anchor="start" x="328.7215" y="-79" font-family="Helvetica,sans-Serif" font-size="10.00" fill="#000000">int</text>
<text text-anchor="start" x="294.5415" y="-67" font-family="Helvetica,sans-Serif" font-size="10.00" fill="#000000">associatedFoodId</text>
</g>
<!-- A3 -->
<g id="node4" class="node">
<title>A3</title>
<polygon fill="none" stroke="#000000" points="408,-242 408,-274 510,-274 510,-242 408,-242"/>
<text text-anchor="start" x="417.6075" y="-255" font-family="Helvetica,sans-Serif" font-size="10.00" fill="#000000">lDate Object Class</text>
<polygon fill="none" stroke="#000000" points="408,-210 408,-242 510,-242 510,-210 408,-210"/>
<text text-anchor="start" x="442.6085" y="-223" font-family="Helvetica,sans-Serif" font-size="10.00" fill="#000000">int year</text>
<polygon fill="none" stroke="#000000" points="408,-178 408,-210 510,-210 510,-178 408,-178"/>
<text text-anchor="start" x="438.4395" y="-191" font-family="Helvetica,sans-Serif" font-size="10.00" fill="#000000">int month</text>
<polygon fill="none" stroke="#000000" points="408,-146 408,-178 510,-178 510,-146 408,-146"/>
<text text-anchor="start" x="444.273" y="-159" font-family="Helvetica,sans-Serif" font-size="10.00" fill="#000000">int day</text>
<polygon fill="none" stroke="#000000" points="408,-114 408,-146 510,-146 510,-114 408,-114"/>
<text text-anchor="start" x="442.329" y="-127" font-family="Helvetica,sans-Serif" font-size="10.00" fill="#000000">int hour</text>
<polygon fill="none" stroke="#000000" points="408,-82 408,-114 510,-114 510,-82 408,-82"/>
<text text-anchor="start" x="437.33" y="-95" font-family="Helvetica,sans-Serif" font-size="10.00" fill="#000000">int minute</text>
</g>
</g>
</svg>
